HIERARCHY
ROOT Hips
{
	OFFSET 0.00000 0.00000 0.00000
	CHANNELS 6 Xposition Yposition Zposition Zrotation Yrotation Xrotation 
	JOINT LHipJoint
	{
		OFFSET 0 0 0
		CHANNELS 3 Zrotation Yrotation Xrotation
		JOINT LeftHip
		{
			OFFSET 1.74857 -1.85566 0.69197
			CHANNELS 3 Zrotation Yrotation Xrotation
			JOINT LeftKnee
			{
				OFFSET 2.40003 -6.59403 0.00000
				CHANNELS 3 Zrotation Yrotation Xrotation
				JOINT LeftAnkle
				{
					OFFSET 2.82169 -7.75254 0.00000
					CHANNELS 3 Zrotation Yrotation Xrotation
					JOINT LeftToe
					{
						OFFSET 0.16466 -0.45240 2.26890
						CHANNELS 3 Zrotation Yrotation Xrotation
						End Site
						{
							OFFSET 0.00000 -0.00000 1.16486
						}
					}
				}
			}
		}
	}
	JOINT RHipJoint
	{
		OFFSET 0 0 0
		CHANNELS 3 Zrotation Yrotation Xrotation
		JOINT RightHip
		{
			OFFSET -1.64169 -1.85566 0.69197
			CHANNELS 3 Zrotation Yrotation Xrotation
			JOINT RightKnee
			{
				OFFSET -2.41814 -6.64379 0.00000
				CHANNELS 3 Zrotation Yrotation Xrotation
				JOINT RightAnkle
				{
					OFFSET -2.80588 -7.70911 0.00000
					CHANNELS 3 Zrotation Yrotation Xrotation
					JOINT RightToe
					{
						OFFSET -0.19098 -0.52472 2.25401
						CHANNELS 3 Zrotation Yrotation Xrotation
						End Site
						{
							OFFSET -0.00000 -0.00000 1.16333
						}
					}
				}
			}
		}
	}
	JOINT lowerback
	{
		OFFSET 0 0 0
		CHANNELS 3 Zrotation Yrotation Xrotation
		JOINT Chest
		{
			OFFSET -0.02828 2.14690 -0.11061
			CHANNELS 3 Zrotation Yrotation Xrotation
			JOINT Chest2
			{
				OFFSET -0.00167 2.15299 0.00759
				CHANNELS 3 Zrotation Yrotation Xrotation
				JOINT lowerneck
				{
					OFFSET 0 0 0
					CHANNELS 3 Zrotation Yrotation Xrotation
					JOINT Neck
					{
						OFFSET -0.09296 1.90118 0.07197
						CHANNELS 3 Zrotation Yrotation Xrotation
						JOINT Head
						{
							OFFSET 0.08490 1.89526 -0.24604
							CHANNELS 3 Zrotation Yrotation Xrotation
							End Site
							{
								OFFSET 0.03186 1.92109 -0.09483
							}
						}
					}
				}
				JOINT LeftCollar
				{
					OFFSET 0 0 0
					CHANNELS 3 Zrotation Yrotation Xrotation
					JOINT LeftShoulder
					{
						OFFSET 3.21569 1.44644 -0.03720
CHANNELS 3 Zrotation Xrotation Yrotation
						JOINT LeftElbow
						{
OFFSET 0 -5.476510 -0.000000
CHANNELS 3 Zrotation Xrotation Yrotation
							JOINT LeftWrist
							{
OFFSET 0 -3.090580 -0.000000
CHANNELS 3 Zrotation Xrotation Yrotation
								JOINT lhand
								{
									OFFSET 0 0 0
CHANNELS 3 Zrotation Xrotation Yrotation
									JOINT LFingers
									{
OFFSET 0 -0.771610 -0.000000
CHANNELS 3 Zrotation Xrotation Yrotation
										End Site
										{
OFFSET 0 -0.622090 -0.000000
										}
									}
								}
								JOINT LThumb
								{
OFFSET 0 0.000000 0.000000
CHANNELS 3 Zrotation Xrotation Yrotation
									End Site
									{
OFFSET 0 -0.631590 0.631590
									}
								}
							}
						}
					}
				}
				JOINT RightCollar
				{
					OFFSET 0 0 0
					CHANNELS 3 Zrotation Yrotation Xrotation
					JOINT RightShoulder
					{
						OFFSET -3.38693 1.28904 -0.07093
CHANNELS 3 Zrotation Xrotation Yrotation
						JOINT RightElbow
						{
OFFSET 0 -5.141820 -0.000000
CHANNELS 3 Zrotation Xrotation Yrotation
							JOINT RightWrist
							{
OFFSET 0 -3.355650 -0.000000
CHANNELS 3 Zrotation Xrotation Yrotation
								JOINT rhand
								{
									OFFSET 0 0 0
CHANNELS 3 Zrotation Xrotation Yrotation
									JOINT RFingers
									{
OFFSET 0 -0.801040 -0.000000
CHANNELS 3 Zrotation Xrotation Yrotation
										End Site
										{
OFFSET 0 -0.645820 -0.000000
										}
									}
								}
								JOINT RThumb
								{
OFFSET 0 0.000000 0.000000
CHANNELS 3 Zrotation Xrotation Yrotation
									End Site
									{
OFFSET 0 -0.655680 0.655680
									}
								}
							}
						}
					}
				}
			}
		}
	}
}
MOTION
Frames: 11
Frame Time: 0.008333333333333333
-0.327300 18.076100 -1.629800 0.991600 0.420500 0.229000 0.000000 0.000000 0.000000 -19.356100 -6.986300 -0.796600 0.884100 5.993700 16.766300 0.609000 5.698900 -17.912500 0.707600 -5.376300 -14.985100 0.000000 0.000000 0.000000 18.767800 4.569900 -3.550100 -1.119900 -6.722500 18.895900 -0.248600 -11.360800 -19.296900 -0.297400 3.506600 -9.692400 0.211600 1.738500 4.241600 0.304500 2.329400 1.081300 0.071100 1.162900 -1.270300 -6.351300 -5.212000 -6.649200 3.076400 -6.811400 17.130000 1.493000 -3.448900 6.635200 -0.000000 0.000000 0.000000 14.388800 12.365800 -64.412900 97.913100 -59.762100 66.847500 15.044100 -6.081500 -20.097500 0.000000 0.000000 0.000000 -7.125000 0.000000 0.000000 -13.320700 50.254800 1.752500 -0.000000 0.000000 0.000000 -11.865300 15.152700 55.501200 -88.555000 -59.992100 -58.748700 -29.653100 -35.168500 -28.320900 0.000000 0.000000 0.000000 7.125000 0.000000 -0.000000 0.509800 -1.823500 0.525800
-0.332203 18.083903 -1.627997 1.151715 0.391173 0.516921 0.000000 0.000000 0.000000 -19.472702 -6.955867 -0.936653 0.850525 5.881970 16.442453 0.594339 5.758627 -17.794219 0.720104 -5.422646 -15.117995 0.000000 0.000000 0.000000 18.589269 4.713047 -3.810396 -1.111740 -6.698723 18.825773 -0.233305 -11.451573 -19.232089 -0.347267 3.786517 -10.476843 0.005016 1.756323 3.981620 0.246365 2.343439 0.989527 0.133122 1.170520 -1.225062 -6.405605 -5.221942 -6.711951 3.076022 -6.813570 17.121460 1.499743 -3.452626 6.645680 0.000000 0.000000 0.000000 14.420319 12.361064 -64.508370 97.810946 -59.768221 66.759207 15.175824 -5.986435 -19.974054 0.000000 0.000000 0.000000 -7.125000 0.000000 0.000000 -13.147814 50.152957 1.695740 0.000000 0.000000 0.000000 -11.807788 15.176606 55.369363 -88.684650 -59.993479 -58.860894 -29.418542 -35.067244 -28.298960 0.000000 0.000000 0.000000 7.125000 0.000000 0.000000 0.642128 -1.739706 0.661438
-0.332164 18.088880 -1.629262 1.121287 0.345647 0.587299 0.000000 0.000000 0.000000 -19.430627 -6.943760 -0.968874 0.842893 5.856143 16.367664 0.586464 5.789983 -17.730366 0.717285 -5.412234 -15.088133 0.000000 0.000000 0.000000 18.619200 4.640792 -3.925122 -1.120827 -6.725116 18.903583 -0.254826 -11.232863 -19.217323 -0.291050 3.463230 -9.571864 0.024550 1.766038 3.916536 0.215398 2.356586 1.017700 0.092806 1.177043 -1.157773 -6.339702 -5.242434 -6.814211 3.046320 -6.838649 17.114479 1.474737 -3.461689 6.659070 0.000000 0.000000 0.000000 14.594391 12.152908 -64.636095 97.866005 -59.764934 66.806780 15.156306 -5.938189 -20.033740 0.000000 0.000000 0.000000 -7.125000 0.000000 0.000000 -13.189035 50.209169 1.719644 0.000000 0.000000 0.000000 -11.765295 15.018458 55.387542 -88.711757 -59.993741 -58.884346 -29.594979 -35.264407 -28.365841 0.000000 0.000000 0.000000 7.125000 0.000000 0.000000 0.551577 -1.856583 0.569166
-0.333870 18.084800 -1.643831 0.932175 0.289571 0.605887 0.000000 0.000000 0.000000 -19.184666 -7.010004 -1.322374 0.892340 6.020944 16.845199 0.601558 5.716578 -17.843338 0.739668 -5.494116 -15.323358 0.000000 0.000000 0.000000 18.856491 4.882250 -3.860660 -1.095481 -6.651029 18.685604 -0.202706 -11.592241 -19.052387 -0.353127 3.817918 -10.564929 0.151744 1.750635 4.052904 0.267272 2.342073 1.014501 0.070768 1.169437 -1.234289 -6.380615 -5.213776 -6.879576 3.050641 -6.792290 17.189871 1.484375 -3.441009 6.694137 0.000000 0.000000 0.000000 14.592423 12.057314 -64.516225 97.924575 -59.761330 66.857375 15.107444 -6.058413 -20.275292 0.000000 0.000000 0.000000 -7.125000 0.000000 0.000000 -13.327989 50.441180 1.815308 0.000000 0.000000 0.000000 -11.771224 14.779264 55.473876 -88.412416 -59.990484 -58.625154 -29.572267 -35.188523 -28.196795 0.000000 0.000000 0.000000 7.125000 0.000000 0.000000 0.534707 -1.669531 0.550123
-0.335454 18.089271 -1.649407 0.853716 0.289937 0.704454 0.000000 0.000000 0.000000 -19.063802 -7.022007 -1.508003 0.897861 6.039041 16.897664 0.609768 5.600779 -17.848539 0.705685 -5.369156 -14.964590 0.000000 0.000000 0.000000 18.950890 4.908614 -3.999251 -1.110668 -6.695639 18.816841 -0.238538 -11.347687 -19.168222 -0.255015 3.244911 -8.961827 0.156334 1.726914 4.014389 0.277561 2.310807 0.987922 0.081061 1.153771 -1.240243 -6.327445 -5.223650 -6.754105 2.990045 -6.809664 17.170897 1.458474 -3.452196 6.662956 0.000000 0.000000 0.000000 14.565790 12.035858 -64.295176 97.895715 -59.763118 66.832458 15.010230 -6.128599 -20.212514 0.000000 0.000000 0.000000 -7.125000 0.000000 0.000000 -13.397092 50.363500 1.799080 0.000000 0.000000 0.000000 -11.743683 14.641174 55.587955 -88.197149 -59.987707 -58.438724 -29.695036 -35.302913 -28.298328 0.000000 0.000000 0.000000 7.125000 0.000000 0.000000 0.481513 -1.810089 0.496417
-0.334316 18.088203 -1.649889 0.879571 0.280951 0.704679 0.000000 0.000000 0.000000 -19.094404 -6.986640 -1.542971 0.901772 6.051835 16.934881 0.608627 5.606425 -17.840655 0.716507 -5.409242 -15.079512 0.000000 0.000000 0.000000 18.911863 4.952024 -3.965785 -1.088928 -6.631986 18.629572 -0.187532 -11.658559 -18.958770 -0.345998 3.779744 -10.457952 0.111876 1.727819 4.033819 0.246222 2.309795 0.991721 0.073424 1.153397 -1.247578 -6.390098 -5.248801 -6.781006 2.997251 -6.837571 17.271268 1.466853 -3.468987 6.703948 0.000000 0.000000 0.000000 14.530346 12.018761 -64.196531 97.839183 -59.766528 66.783526 15.288133 -6.182914 -20.168581 0.000000 0.000000 0.000000 -7.125000 0.000000 0.000000 -13.113878 50.363951 1.760057 0.000000 0.000000 0.000000 -11.733305 14.662851 55.617672 -88.254581 -59.988497 -58.488510 -29.737355 -35.285307 -28.225983 0.000000 0.000000 0.000000 7.125000 0.000000 0.000000 0.443914 -1.743390 0.457217
-0.334139 18.092441 -1.647187 0.843739 0.213688 0.769306 0.000000 0.000000 0.000000 -19.059192 -7.018636 -1.567900 0.899640 6.044971 16.914961 0.609657 5.724624 -17.939882 0.760864 -5.570517 -15.543320 0.000000 0.000000 0.000000 18.954411 4.980028 -3.967764 -1.094623 -6.648746 18.678786 -0.233150 -11.321320 -19.075792 -0.236913 3.132474 -8.647796 0.038067 1.744736 4.004298 0.269848 2.329851 0.932146 0.137557 1.163571 -1.296231 -6.382428 -5.216690 -6.781922 2.998943 -6.795926 17.310133 1.469512 -3.448456 6.714203 0.000000 0.000000 0.000000 14.495616 12.158068 -64.174698 98.111877 -59.749911 67.019260 15.280122 -6.154699 -20.291885 0.000000 0.000000 0.000000 -7.125000 0.000000 0.000000 -13.168540 50.485153 1.807314 0.000000 0.000000 0.000000 -11.702248 14.787520 55.662943 -88.288779 -59.988893 -58.518081 -29.812187 -35.330509 -28.226814 0.000000 0.000000 0.000000 7.125000 0.000000 0.000000 0.400647 -1.763486 0.412824
-0.327600 18.090731 -1.634738 1.001209 0.170026 0.705102 0.000000 0.000000 0.000000 -19.295430 -6.935394 -1.212937 0.859151 5.910722 16.525698 0.597562 5.747058 -17.821930 0.686341 -5.296021 -14.755017 0.000000 0.000000 0.000000 18.730382 4.898888 -3.926686 -1.087687 -6.628230 18.618541 -0.203824 -11.499617 -18.952544 -0.349706 3.799429 -10.513081 -0.112260 1.765999 3.917361 0.233174 2.351474 0.966243 0.186510 1.174768 -1.217222 -6.490895 -5.229262 -6.638021 3.108347 -6.822780 17.131771 1.524868 -3.460968 6.640970 0.000000 0.000000 0.000000 14.494445 12.248043 -64.193271 98.271682 -59.739857 67.157220 15.075270 -6.201720 -20.309552 0.000000 0.000000 0.000000 -7.125000 0.000000 0.000000 -13.372166 50.470109 1.831130 0.000000 0.000000 0.000000 -11.721508 14.857737 55.668825 -88.299222 -59.989081 -58.527136 -29.951649 -35.437825 -28.221966 0.000000 0.000000 0.000000 7.125000 0.000000 0.000000 0.318716 -1.794424 0.328547
-0.322857 18.095414 -1.626786 1.090383 0.160751 0.695443 0.000000 0.000000 0.000000 -19.421655 -6.848129 -0.957002 0.818793 5.773901 16.129810 0.576136 5.920149 -17.712799 0.734471 -5.475257 -15.269229 0.000000 0.000000 0.000000 18.618287 4.811230 -3.883804 -1.102015 -6.670338 18.742285 -0.261801 -11.119907 -19.164055 -0.236900 3.132642 -8.648340 -0.160777 1.785485 3.820308 0.162905 2.374548 0.993807 0.144576 1.186363 -1.133844 -6.407935 -5.225792 -6.695193 3.129627 -6.829492 17.140470 1.516085 -3.456664 6.651492 0.000000 0.000000 0.000000 14.607941 12.174306 -64.289781 98.358776 -59.734329 67.232405 15.279035 -6.178158 -20.421153 0.000000 0.000000 0.000000 -7.125000 0.000000 0.000000 -13.219472 50.613444 1.856703 0.000000 0.000000 0.000000 -11.661301 14.857332 55.685009 -88.218015 -59.988036 -58.456851 -29.889360 -35.470420 -28.253171 0.000000 0.000000 0.000000 7.125000 0.000000 0.000000 0.360483 -1.811793 0.371754
-0.320937 18.094242 -1.621404 1.148600 0.104146 0.704265 0.000000 0.000000 0.000000 -19.508320 -6.857152 -0.847519 0.807296 5.734269 16.015257 0.583356 5.968078 -17.830625 0.717115 -5.411407 -15.085753 0.000000 0.000000 0.000000 18.544073 4.844707 -3.776244 -1.068406 -6.571034 18.450503 -0.200020 -11.493603 -18.901091 -0.375858 3.937484 -10.900878 -0.254733 1.794405 3.745767 0.155071 2.382918 0.990413 0.191075 1.190717 -1.099192 -6.396201 -5.206800 -6.596645 3.113982 -6.806804 17.074613 1.514394 -3.447299 6.611069 0.000000 0.000000 0.000000 14.563323 12.187133 -64.277822 98.339025 -59.735620 67.215405 15.227097 -6.145970 -20.363115 0.000000 0.000000 0.000000 -7.125000 0.000000 0.000000 -13.246931 50.547484 1.838952 0.000000 0.000000 0.000000 -11.694205 14.824734 55.771708 -88.102219 -59.986354 -58.356559 -29.500125 -35.422035 -28.365416 0.000000 0.000000 0.000000 7.125000 0.000000 0.000000 0.606621 -1.831756 0.625662
-0.314295 18.102311 -1.612668 1.282108 0.216392 0.712022 0.000000 0.000000 0.000000 -19.708010 -6.942506 -0.454168 0.752044 5.538876 15.452050 0.553299 6.149256 -17.632013 0.674217 -5.250587 -14.624741 0.000000 0.000000 0.000000 18.381358 4.713532 -3.756809 -1.080753 -6.607585 18.557919 -0.247090 -11.201648 -19.092768 -0.270648 3.345481 -9.242302 -0.293347 1.759735 3.651689 0.073292 2.334566 0.993114 0.134545 1.166685 -1.041651 -6.310430 -5.171550 -6.573059 3.084457 -6.767092 17.115205 1.494937 -3.425512 6.613569 0.000000 0.000000 0.000000 14.600521 12.178267 -64.297136 98.308721 -59.737487 67.189211 15.129293 -6.141507 -20.630328 0.000000 0.000000 0.000000 -7.125000 0.000000 0.000000 -13.445050 50.796627 1.950651 0.000000 0.000000 0.000000 -11.609092 14.850711 55.793776 -88.053605 -59.985673 -58.314445 -29.366511 -35.463266 -28.417620 0.000000 0.000000 0.000000 7.125000 0.000000 0.000000 0.693348 -1.853381 0.715501
